<svg width="1002" height="1002" viewBox="0 0 1002 1002" fill="none"
  xmlns="http://www.w3.org/2000/svg">
  <path d="M501 1001C777.142 1001 1001 777.142 1001 501C1001 224.858 777.142 1 501 1C224.858 1 1 224.858 1 501C1 777.142 224.858 1001 501 1001Z" fill="#002E33" stroke="#002E33" stroke-width="2"/>
  <path d="M339.766 422.643V637.143H267.516V366.643H335.266L339.766 422.643ZM329.766 492.393H309.766C309.766 473.559 312.016 456.226 316.516 440.393C321.182 424.393 327.932 410.559 336.766 398.893C345.766 387.059 356.849 377.893 370.016 371.393C383.182 364.893 398.432 361.643 415.766 361.643C427.766 361.643 438.766 363.476 448.766 367.143C458.766 370.643 467.349 376.226 474.516 383.893C481.849 391.393 487.516 401.226 491.516 413.393C495.516 425.393 497.516 439.809 497.516 456.643V637.143H425.516V464.643C425.516 452.309 423.849 442.809 420.516 436.143C417.182 429.476 412.432 424.809 406.266 422.143C400.266 419.476 393.016 418.143 384.516 418.143C375.182 418.143 367.016 420.059 360.016 423.893C353.182 427.726 347.516 433.059 343.016 439.893C338.516 446.559 335.182 454.393 333.016 463.393C330.849 472.393 329.766 482.059 329.766 492.393ZM490.766 484.143L465.016 487.393C465.016 469.726 467.182 453.309 471.516 438.143C476.016 422.976 482.599 409.643 491.266 398.143C500.099 386.643 511.016 377.726 524.016 371.393C537.016 364.893 552.016 361.643 569.016 361.643C582.016 361.643 593.849 363.559 604.516 367.393C615.182 371.059 624.266 376.976 631.766 385.143C639.432 393.143 645.266 403.643 649.266 416.643C653.432 429.643 655.516 445.559 655.516 464.393V637.143H583.266V464.393C583.266 451.893 581.599 442.393 578.266 435.893C575.099 429.226 570.432 424.643 564.266 422.143C558.266 419.476 551.099 418.143 542.766 418.143C534.099 418.143 526.516 419.893 520.016 423.393C513.516 426.726 508.099 431.393 503.766 437.393C499.432 443.393 496.182 450.393 494.016 458.393C491.849 466.226 490.766 474.809 490.766 484.143ZM673.806 602.393C673.806 591.726 677.472 582.809 684.806 575.643C692.306 568.476 702.222 564.893 714.556 564.893C726.889 564.893 736.722 568.476 744.056 575.643C751.556 582.809 755.306 591.726 755.306 602.393C755.306 613.059 751.556 621.976 744.056 629.143C736.722 636.309 726.889 639.893 714.556 639.893C702.222 639.893 692.306 636.309 684.806 629.143C677.472 621.976 673.806 613.059 673.806 602.393Z" fill="#D9F6EF"/>
</svg>
